<?xml version="1.0" encoding="UTF-8"?><svg xmlns="http://www.w3.org/2000/svg" xmlns:xlink="http://www.w3.org/1999/xlink" width="375pt" zoomAndPan="magnify" viewBox="0 0 375 93.749996" height="93.749996pt" preserveAspectRatio="xMidYMid meet" version="1.2"><defs><g/></defs><g xml:id="surface1" id="surface1"><g style="fill:rgb(65.098572%,43.528748%,22.749329%);fill-opacity:0.302;"><g transform="translate(11.263216, 74.263026)"><path style="stroke:none;" d="M 21.796875 -18 C 21.796875 -17.5625 22 -17.269531 22.40625 -17.125 C 23.019531 -17.8125 23.882812 -18.410156 25 -18.921875 C 26.113281 -19.441406 27.367188 -19.703125 28.765625 -19.703125 C 31.429688 -19.703125 33.640625 -18.914062 35.390625 -17.34375 C 35.390625 -17.34375 35.476562 -17.269531 35.65625 -17.125 C 35.976562 -17.300781 36.140625 -17.617188 36.140625 -18.078125 C 36.140625 -18.859375 35.519531 -19.601562 34.28125 -20.3125 C 32.832031 -21.101562 30.976562 -21.5 28.71875 -21.5 C 28.113281 -21.5 27.554688 -21.445312 27.046875 -21.34375 L 27.046875 -31.28125 C 27.046875 -32.363281 26.671875 -32.90625 25.921875 -32.90625 C 25.179688 -32.90625 24.8125 -32.347656 24.8125 -31.234375 L 24.8125 -20.8125 C 22.800781 -20 21.796875 -19.0625 21.796875 -18 Z M 24.921875 0.03125 C 20.535156 0.03125 16.550781 -0.796875 12.96875 -2.453125 C 9.394531 -4.117188 6.539062 -6.6875 4.40625 -10.15625 C 2.03125 -14.09375 0.84375 -18.988281 0.84375 -24.84375 C 0.84375 -30.707031 2.054688 -35.640625 4.484375 -39.640625 C 6.671875 -43.242188 9.632812 -45.921875 13.375 -47.671875 C 17.113281 -49.421875 21.140625 -50.296875 25.453125 -50.296875 C 33.316406 -50.296875 39.484375 -47.992188 43.953125 -43.390625 C 48.429688 -38.785156 50.671875 -32.769531 50.671875 -25.34375 C 50.671875 -20.800781 49.707031 -16.816406 47.78125 -13.390625 L 53.3125 -13.390625 C 54.21875 -10.648438 54.671875 -8.0625 54.671875 -5.625 C 54.671875 -1.925781 53.644531 1.050781 51.59375 3.3125 C 49.539062 5.570312 46.675781 6.703125 43 6.703125 C 39.320312 6.703125 36.269531 5.488281 33.84375 3.0625 C 31.414062 0.632812 29.441406 -3.1875 27.921875 -8.40625 L 27.734375 -8.40625 C 26.921875 -8.40625 26.515625 -8 26.515625 -7.1875 C 26.515625 -5.664062 27.363281 -3.332031 29.0625 -0.1875 C 27.75 -0.0390625 26.367188 0.03125 24.921875 0.03125 Z M 24.921875 0.03125 "/></g><g transform="translate(66.010708, 74.263026)"><path style="stroke:none;" d="M 20.78125 -34.25 L 20.78125 -19.171875 C 20.78125 -15.390625 21.691406 -12.929688 23.515625 -11.796875 C 23.535156 -11.671875 23.546875 -11.429688 23.546875 -11.078125 L 23.546875 -10.390625 C 23.546875 -6.660156 22.53125 -3.859375 20.5 -1.984375 C 18.625 -0.203125 16.117188 0.6875 12.984375 0.6875 C 9.859375 0.6875 7.28125 -0.203125 5.25 -1.984375 C 2.6875 -4.234375 1.40625 -7.53125 1.40625 -11.875 L 1.40625 -36.609375 C 1.863281 -36.929688 2.359375 -37.191406 2.890625 -37.390625 C 3.421875 -37.597656 3.976562 -37.851562 4.5625 -38.15625 C 3.46875 -38.71875 2.476562 -39.6875 1.59375 -41.0625 C 0.707031 -42.445312 0.265625 -44.066406 0.265625 -45.921875 C 0.265625 -49.117188 1.316406 -51.734375 3.421875 -53.765625 C 5.523438 -55.796875 8.101562 -56.8125 11.15625 -56.8125 C 14.21875 -56.8125 16.78125 -55.773438 18.84375 -53.703125 C 20.914062 -51.640625 21.953125 -49.046875 21.953125 -45.921875 C 21.953125 -43.410156 21.164062 -41.207031 19.59375 -39.3125 C 18.019531 -37.425781 16.101562 -36.242188 13.84375 -35.765625 C 13.84375 -34.796875 14.210938 -34.3125 14.953125 -34.3125 C 16.242188 -34.3125 17.5625 -34.820312 18.90625 -35.84375 C 19.925781 -35.050781 20.550781 -34.519531 20.78125 -34.25 Z M 20.78125 -34.25 "/></g><g transform="translate(89.256516, 74.263026)"><path style="stroke:none;" d="M 62.8125 -18.828125 C 62.8125 -16.984375 63.015625 -15.476562 63.421875 -14.3125 C 63.828125 -13.144531 64.539062 -12.242188 65.5625 -11.609375 C 65.582031 -11.484375 65.59375 -11.265625 65.59375 -10.953125 L 65.59375 -10.390625 C 65.59375 -6.910156 64.578125 -4.191406 62.546875 -2.234375 C 60.515625 -0.285156 57.894531 0.6875 54.6875 0.6875 C 51.476562 0.6875 48.898438 -0.1875 46.953125 -1.9375 C 44.640625 -3.96875 43.484375 -7.078125 43.484375 -11.265625 L 43.484375 -23.28125 C 43.484375 -24.976562 42.925781 -25.828125 41.8125 -25.828125 C 41.382812 -25.828125 41.039062 -25.726562 40.78125 -25.53125 L 41.46875 -19.859375 L 41.46875 -11.265625 C 41.46875 -7.816406 42.039062 -5.203125 43.1875 -3.421875 C 41.96875 -2.128906 40.453125 -1.117188 38.640625 -0.390625 C 36.828125 0.328125 34.984375 0.6875 33.109375 0.6875 C 30.054688 0.6875 27.695312 -0.046875 26.03125 -1.515625 C 24 -3.296875 22.984375 -6.101562 22.984375 -9.9375 L 22.984375 -23.28125 C 22.984375 -24.976562 22.425781 -25.828125 21.3125 -25.828125 C 20.875 -25.828125 20.53125 -25.726562 20.28125 -25.53125 L 20.96875 -19.859375 L 20.96875 -9.78125 C 20.96875 -6.9375 21.347656 -4.742188 22.109375 -3.203125 C 19.617188 -0.640625 16.128906 0.640625 11.640625 0.640625 C 8.972656 0.640625 6.726562 -0.03125 4.90625 -1.375 C 2.800781 -2.914062 1.75 -4.992188 1.75 -7.609375 L 1.75 -25.796875 C 0.25 -27.898438 -0.5 -30.492188 -0.5 -33.578125 C -0.5 -36.660156 0.25 -39.332031 1.75 -41.59375 L 10.921875 -41.59375 C 12.722656 -41.59375 14.257812 -40.914062 15.53125 -39.5625 C 14.40625 -38.53125 13.84375 -37.671875 13.84375 -36.984375 C 13.84375 -36.191406 14.289062 -35.796875 15.1875 -35.796875 C 16.300781 -37.722656 17.832031 -39.257812 19.78125 -40.40625 C 22.0625 -41.695312 24.738281 -42.34375 27.8125 -42.34375 C 30.144531 -42.34375 32.191406 -41.847656 33.953125 -40.859375 C 35.722656 -39.867188 37.035156 -38.726562 37.890625 -37.4375 C 39.085938 -39.0625 40.640625 -40.285156 42.546875 -41.109375 C 44.460938 -41.929688 46.460938 -42.34375 48.546875 -42.34375 C 53.140625 -42.34375 56.703125 -40.921875 59.234375 -38.078125 C 61.722656 -35.242188 62.96875 -31.351562 62.96875 -26.40625 Z M 62.8125 -18.828125 "/></g><g transform="translate(154.542616, 74.263026)"><path style="stroke:none;" d="M 21.234375 -21.1875 L 21.234375 -14.53125 C 21.410156 -14.351562 21.703125 -14.265625 22.109375 -14.265625 C 22.515625 -14.265625 22.804688 -14.40625 22.984375 -14.6875 C 23.160156 -14.96875 23.25 -15.445312 23.25 -16.125 L 23.25 -21.578125 C 23.25 -24.003906 23.144531 -25.617188 22.9375 -26.421875 C 22.738281 -27.222656 22.359375 -27.625 21.796875 -27.625 C 21.441406 -27.625 21.140625 -27.5 20.890625 -27.25 C 21.117188 -24.726562 21.234375 -22.707031 21.234375 -21.1875 Z M 7 -4.34375 C 2.84375 -8.34375 0.765625 -13.773438 0.765625 -20.640625 C 0.765625 -27.503906 2.722656 -32.921875 6.640625 -36.890625 C 10.554688 -40.859375 15.695312 -42.84375 22.0625 -42.84375 C 28.4375 -42.84375 33.585938 -40.773438 37.515625 -36.640625 C 41.421875 -32.503906 43.375 -27.117188 43.375 -20.484375 C 43.375 -13.859375 41.488281 -8.59375 37.71875 -4.6875 C 33.957031 -0.78125 28.84375 1.171875 22.375 1.171875 C 15.90625 1.171875 10.78125 -0.664062 7 -4.34375 Z M 7 -4.34375 "/></g><g transform="translate(198.67541, 74.263026)"><path style="stroke:none;" d="M 22.90625 -26.96875 C 22.65625 -27.226562 22.347656 -27.359375 21.984375 -27.359375 C 21.429688 -27.359375 21.050781 -26.957031 20.84375 -26.15625 C 20.644531 -25.351562 20.546875 -23.738281 20.546875 -21.3125 L 20.546875 -17.421875 C 20.546875 -16.742188 20.632812 -16.265625 20.8125 -15.984375 C 20.988281 -15.703125 21.28125 -15.5625 21.6875 -15.5625 C 22.09375 -15.5625 22.382812 -15.648438 22.5625 -15.828125 L 22.5625 -20.921875 C 22.5625 -23.410156 22.675781 -25.425781 22.90625 -26.96875 Z M 20.171875 -49.46875 C 21.515625 -51.039062 22.992188 -52.222656 24.609375 -53.015625 C 26.234375 -53.816406 28.300781 -54.21875 30.8125 -54.21875 C 33.863281 -54.21875 36.335938 -53.367188 38.234375 -51.671875 C 40.191406 -49.835938 41.171875 -47.375 41.171875 -44.28125 L 41.171875 -19.171875 C 41.171875 -15.390625 42.082031 -12.929688 43.90625 -11.796875 C 43.925781 -11.671875 43.9375 -11.429688 43.9375 -11.078125 L 43.9375 -10.390625 C 43.9375 -6.785156 42.847656 -3.984375 40.671875 -1.984375 C 38.742188 -0.203125 36.359375 0.6875 33.515625 0.6875 C 31.535156 0.6875 29.828125 0.265625 28.390625 -0.578125 C 26.679688 -1.535156 25.488281 -2.851562 24.8125 -4.53125 C 23.945312 -4.53125 23.515625 -4.109375 23.515625 -3.265625 C 23.515625 -2.890625 23.660156 -2.453125 23.953125 -1.953125 C 24.242188 -1.460938 24.644531 -1.023438 25.15625 -0.640625 C 23.65625 0.242188 21.710938 0.6875 19.328125 0.6875 C 16.109375 0.6875 13.097656 -0.0507812 10.296875 -1.53125 C 7.492188 -3.019531 5.265625 -5.257812 3.609375 -8.25 C 1.710938 -11.675781 0.765625 -15.828125 0.765625 -20.703125 C 0.765625 -27.191406 2.582031 -32.285156 6.21875 -35.984375 C 9.863281 -39.691406 14.515625 -41.546875 20.171875 -41.546875 C 23.515625 -41.546875 26.429688 -40.910156 28.921875 -39.640625 C 29.191406 -39.921875 29.328125 -40.210938 29.328125 -40.515625 C 29.328125 -41.273438 28.425781 -41.921875 26.625 -42.453125 C 24.832031 -42.992188 23.019531 -43.265625 21.1875 -43.265625 C 21.1875 -45.847656 20.847656 -47.914062 20.171875 -49.46875 Z M 20.171875 -49.46875 "/></g><g transform="translate(242.313612, 74.263026)"><path style="stroke:none;" d="M 39.6875 -18.828125 C 39.6875 -17.003906 39.890625 -15.535156 40.296875 -14.421875 C 40.703125 -13.304688 41.410156 -12.429688 42.421875 -11.796875 C 42.453125 -11.671875 42.46875 -11.429688 42.46875 -11.078125 L 42.46875 -10.390625 C 42.46875 -6.785156 41.375 -3.984375 39.1875 -1.984375 C 37.257812 -0.203125 34.875 0.6875 32.03125 0.6875 C 30.101562 0.6875 28.335938 0.234375 26.734375 -0.671875 C 25.140625 -1.585938 24.003906 -2.910156 23.328125 -4.640625 C 22.460938 -4.640625 22.03125 -4.222656 22.03125 -3.390625 C 22.03125 -2.679688 22.472656 -1.878906 23.359375 -0.984375 C 21.710938 0.128906 19.226562 0.6875 15.90625 0.6875 C 11.207031 0.6875 7.457031 -0.585938 4.65625 -3.140625 C 1.851562 -5.691406 0.453125 -9.253906 0.453125 -13.828125 C 0.453125 -18.410156 1.9375 -21.957031 4.90625 -24.46875 C 7.625 -26.71875 11.140625 -27.84375 15.453125 -27.84375 C 16.921875 -27.84375 18.335938 -27.742188 19.703125 -27.546875 C 20.617188 -27.367188 21.113281 -27.269531 21.1875 -27.25 C 21.269531 -27.5 21.3125 -27.710938 21.3125 -27.890625 C 21.3125 -28.546875 20.75 -28.988281 19.625 -29.21875 C 18.507812 -29.445312 17.050781 -29.5625 15.25 -29.5625 C 11.425781 -29.5625 8.15625 -28.789062 5.4375 -27.25 C 4.195312 -29.351562 3.578125 -32.015625 3.578125 -35.234375 C 3.578125 -37.054688 3.804688 -38.410156 4.265625 -39.296875 C 6.085938 -40.140625 8.40625 -40.882812 11.21875 -41.53125 C 14.039062 -42.175781 17.007812 -42.5 20.125 -42.5 C 26.570312 -42.5 31.441406 -41.085938 34.734375 -38.265625 C 38.035156 -35.453125 39.6875 -31.460938 39.6875 -26.296875 Z M 19.9375 -16.96875 C 18.875 -16.96875 18.34375 -16.488281 18.34375 -15.53125 C 18.34375 -14.613281 18.960938 -14.15625 20.203125 -14.15625 C 21.066406 -14.15625 21.703125 -14.363281 22.109375 -14.78125 C 22.515625 -15.195312 22.71875 -15.925781 22.71875 -16.96875 C 22.71875 -16.96875 21.789062 -16.96875 19.9375 -16.96875 Z M 19.9375 -16.96875 "/></g></g><g style="fill:rgb(65.098572%,43.528748%,22.749329%);fill-opacity:0.502;"><g transform="translate(8.372928, 69.6376)"><path style="stroke:none;" d="M 21.796875 -18 C 21.796875 -17.5625 22 -17.269531 22.40625 -17.125 C 23.019531 -17.8125 23.882812 -18.410156 25 -18.921875 C 26.113281 -19.441406 27.367188 -19.703125 28.765625 -19.703125 C 31.429688 -19.703125 33.640625 -18.914062 35.390625 -17.34375 C 35.390625 -17.34375 35.476562 -17.269531 35.65625 -17.125 C 35.976562 -17.300781 36.140625 -17.617188 36.140625 -18.078125 C 36.140625 -18.859375 35.519531 -19.601562 34.28125 -20.3125 C 32.832031 -21.101562 30.976562 -21.5 28.71875 -21.5 C 28.113281 -21.5 27.554688 -21.445312 27.046875 -21.34375 L 27.046875 -31.28125 C 27.046875 -32.363281 26.671875 -32.90625 25.921875 -32.90625 C 25.179688 -32.90625 24.8125 -32.347656 24.8125 -31.234375 L 24.8125 -20.8125 C 22.800781 -20 21.796875 -19.0625 21.796875 -18 Z M 24.921875 0.03125 C 20.535156 0.03125 16.550781 -0.796875 12.96875 -2.453125 C 9.394531 -4.117188 6.539062 -6.6875 4.40625 -10.15625 C 2.03125 -14.09375 0.84375 -18.988281 0.84375 -24.84375 C 0.84375 -30.707031 2.054688 -35.640625 4.484375 -39.640625 C 6.671875 -43.242188 9.632812 -45.921875 13.375 -47.671875 C 17.113281 -49.421875 21.140625 -50.296875 25.453125 -50.296875 C 33.316406 -50.296875 39.484375 -47.992188 43.953125 -43.390625 C 48.429688 -38.785156 50.671875 -32.769531 50.671875 -25.34375 C 50.671875 -20.800781 49.707031 -16.816406 47.78125 -13.390625 L 53.3125 -13.390625 C 54.21875 -10.648438 54.671875 -8.0625 54.671875 -5.625 C 54.671875 -1.925781 53.644531 1.050781 51.59375 3.3125 C 49.539062 5.570312 46.675781 6.703125 43 6.703125 C 39.320312 6.703125 36.269531 5.488281 33.84375 3.0625 C 31.414062 0.632812 29.441406 -3.1875 27.921875 -8.40625 L 27.734375 -8.40625 C 26.921875 -8.40625 26.515625 -8 26.515625 -7.1875 C 26.515625 -5.664062 27.363281 -3.332031 29.0625 -0.1875 C 27.75 -0.0390625 26.367188 0.03125 24.921875 0.03125 Z M 24.921875 0.03125 "/></g><g transform="translate(63.120421, 69.6376)"><path style="stroke:none;" d="M 20.78125 -34.25 L 20.78125 -19.171875 C 20.78125 -15.390625 21.691406 -12.929688 23.515625 -11.796875 C 23.535156 -11.671875 23.546875 -11.429688 23.546875 -11.078125 L 23.546875 -10.390625 C 23.546875 -6.660156 22.53125 -3.859375 20.5 -1.984375 C 18.625 -0.203125 16.117188 0.6875 12.984375 0.6875 C 9.859375 0.6875 7.28125 -0.203125 5.25 -1.984375 C 2.6875 -4.234375 1.40625 -7.53125 1.40625 -11.875 L 1.40625 -36.609375 C 1.863281 -36.929688 2.359375 -37.191406 2.890625 -37.390625 C 3.421875 -37.597656 3.976562 -37.851562 4.5625 -38.15625 C 3.46875 -38.71875 2.476562 -39.6875 1.59375 -41.0625 C 0.707031 -42.445312 0.265625 -44.066406 0.265625 -45.921875 C 0.265625 -49.117188 1.316406 -51.734375 3.421875 -53.765625 C 5.523438 -55.796875 8.101562 -56.8125 11.15625 -56.8125 C 14.21875 -56.8125 16.78125 -55.773438 18.84375 -53.703125 C 20.914062 -51.640625 21.953125 -49.046875 21.953125 -45.921875 C 21.953125 -43.410156 21.164062 -41.207031 19.59375 -39.3125 C 18.019531 -37.425781 16.101562 -36.242188 13.84375 -35.765625 C 13.84375 -34.796875 14.210938 -34.3125 14.953125 -34.3125 C 16.242188 -34.3125 17.5625 -34.820312 18.90625 -35.84375 C 19.925781 -35.050781 20.550781 -34.519531 20.78125 -34.25 Z M 20.78125 -34.25 "/></g><g transform="translate(86.366228, 69.6376)"><path style="stroke:none;" d="M 62.8125 -18.828125 C 62.8125 -16.984375 63.015625 -15.476562 63.421875 -14.3125 C 63.828125 -13.144531 64.539062 -12.242188 65.5625 -11.609375 C 65.582031 -11.484375 65.59375 -11.265625 65.59375 -10.953125 L 65.59375 -10.390625 C 65.59375 -6.910156 64.578125 -4.191406 62.546875 -2.234375 C 60.515625 -0.285156 57.894531 0.6875 54.6875 0.6875 C 51.476562 0.6875 48.898438 -0.1875 46.953125 -1.9375 C 44.640625 -3.96875 43.484375 -7.078125 43.484375 -11.265625 L 43.484375 -23.28125 C 43.484375 -24.976562 42.925781 -25.828125 41.8125 -25.828125 C 41.382812 -25.828125 41.039062 -25.726562 40.78125 -25.53125 L 41.46875 -19.859375 L 41.46875 -11.265625 C 41.46875 -7.816406 42.039062 -5.203125 43.1875 -3.421875 C 41.96875 -2.128906 40.453125 -1.117188 38.640625 -0.390625 C 36.828125 0.328125 34.984375 0.6875 33.109375 0.6875 C 30.054688 0.6875 27.695312 -0.046875 26.03125 -1.515625 C 24 -3.296875 22.984375 -6.101562 22.984375 -9.9375 L 22.984375 -23.28125 C 22.984375 -24.976562 22.425781 -25.828125 21.3125 -25.828125 C 20.875 -25.828125 20.53125 -25.726562 20.28125 -25.53125 L 20.96875 -19.859375 L 20.96875 -9.78125 C 20.96875 -6.9375 21.347656 -4.742188 22.109375 -3.203125 C 19.617188 -0.640625 16.128906 0.640625 11.640625 0.640625 C 8.972656 0.640625 6.726562 -0.03125 4.90625 -1.375 C 2.800781 -2.914062 1.75 -4.992188 1.75 -7.609375 L 1.75 -25.796875 C 0.25 -27.898438 -0.5 -30.492188 -0.5 -33.578125 C -0.5 -36.660156 0.25 -39.332031 1.75 -41.59375 L 10.921875 -41.59375 C 12.722656 -41.59375 14.257812 -40.914062 15.53125 -39.5625 C 14.40625 -38.53125 13.84375 -37.671875 13.84375 -36.984375 C 13.84375 -36.191406 14.289062 -35.796875 15.1875 -35.796875 C 16.300781 -37.722656 17.832031 -39.257812 19.78125 -40.40625 C 22.0625 -41.695312 24.738281 -42.34375 27.8125 -42.34375 C 30.144531 -42.34375 32.191406 -41.847656 33.953125 -40.859375 C 35.722656 -39.867188 37.035156 -38.726562 37.890625 -37.4375 C 39.085938 -39.0625 40.640625 -40.285156 42.546875 -41.109375 C 44.460938 -41.929688 46.460938 -42.34375 48.546875 -42.34375 C 53.140625 -42.34375 56.703125 -40.921875 59.234375 -38.078125 C 61.722656 -35.242188 62.96875 -31.351562 62.96875 -26.40625 Z M 62.8125 -18.828125 "/></g><g transform="translate(151.652328, 69.6376)"><path style="stroke:none;" d="M 21.234375 -21.1875 L 21.234375 -14.53125 C 21.410156 -14.351562 21.703125 -14.265625 22.109375 -14.265625 C 22.515625 -14.265625 22.804688 -14.40625 22.984375 -14.6875 C 23.160156 -14.96875 23.25 -15.445312 23.25 -16.125 L 23.25 -21.578125 C 23.25 -24.003906 23.144531 -25.617188 22.9375 -26.421875 C 22.738281 -27.222656 22.359375 -27.625 21.796875 -27.625 C 21.441406 -27.625 21.140625 -27.5 20.890625 -27.25 C 21.117188 -24.726562 21.234375 -22.707031 21.234375 -21.1875 Z M 7 -4.34375 C 2.84375 -8.34375 0.765625 -13.773438 0.765625 -20.640625 C 0.765625 -27.503906 2.722656 -32.921875 6.640625 -36.890625 C 10.554688 -40.859375 15.695312 -42.84375 22.0625 -42.84375 C 28.4375 -42.84375 33.585938 -40.773438 37.515625 -36.640625 C 41.421875 -32.503906 43.375 -27.117188 43.375 -20.484375 C 43.375 -13.859375 41.488281 -8.59375 37.71875 -4.6875 C 33.957031 -0.78125 28.84375 1.171875 22.375 1.171875 C 15.90625 1.171875 10.78125 -0.664062 7 -4.34375 Z M 7 -4.34375 "/></g><g transform="translate(195.785122, 69.6376)"><path style="stroke:none;" d="M 22.90625 -26.96875 C 22.65625 -27.226562 22.347656 -27.359375 21.984375 -27.359375 C 21.429688 -27.359375 21.050781 -26.957031 20.84375 -26.15625 C 20.644531 -25.351562 20.546875 -23.738281 20.546875 -21.3125 L 20.546875 -17.421875 C 20.546875 -16.742188 20.632812 -16.265625 20.8125 -15.984375 C 20.988281 -15.703125 21.28125 -15.5625 21.6875 -15.5625 C 22.09375 -15.5625 22.382812 -15.648438 22.5625 -15.828125 L 22.5625 -20.921875 C 22.5625 -23.410156 22.675781 -25.425781 22.90625 -26.96875 Z M 20.171875 -49.46875 C 21.515625 -51.039062 22.992188 -52.222656 24.609375 -53.015625 C 26.234375 -53.816406 28.300781 -54.21875 30.8125 -54.21875 C 33.863281 -54.21875 36.335938 -53.367188 38.234375 -51.671875 C 40.191406 -49.835938 41.171875 -47.375 41.171875 -44.28125 L 41.171875 -19.171875 C 41.171875 -15.390625 42.082031 -12.929688 43.90625 -11.796875 C 43.925781 -11.671875 43.9375 -11.429688 43.9375 -11.078125 L 43.9375 -10.390625 C 43.9375 -6.785156 42.847656 -3.984375 40.671875 -1.984375 C 38.742188 -0.203125 36.359375 0.6875 33.515625 0.6875 C 31.535156 0.6875 29.828125 0.265625 28.390625 -0.578125 C 26.679688 -1.535156 25.488281 -2.851562 24.8125 -4.53125 C 23.945312 -4.53125 23.515625 -4.109375 23.515625 -3.265625 C 23.515625 -2.890625 23.660156 -2.453125 23.953125 -1.953125 C 24.242188 -1.460938 24.644531 -1.023438 25.15625 -0.640625 C 23.65625 0.242188 21.710938 0.6875 19.328125 0.6875 C 16.109375 0.6875 13.097656 -0.0507812 10.296875 -1.53125 C 7.492188 -3.019531 5.265625 -5.257812 3.609375 -8.25 C 1.710938 -11.675781 0.765625 -15.828125 0.765625 -20.703125 C 0.765625 -27.191406 2.582031 -32.285156 6.21875 -35.984375 C 9.863281 -39.691406 14.515625 -41.546875 20.171875 -41.546875 C 23.515625 -41.546875 26.429688 -40.910156 28.921875 -39.640625 C 29.191406 -39.921875 29.328125 -40.210938 29.328125 -40.515625 C 29.328125 -41.273438 28.425781 -41.921875 26.625 -42.453125 C 24.832031 -42.992188 23.019531 -43.265625 21.1875 -43.265625 C 21.1875 -45.847656 20.847656 -47.914062 20.171875 -49.46875 Z M 20.171875 -49.46875 "/></g><g transform="translate(239.423325, 69.6376)"><path style="stroke:none;" d="M 39.6875 -18.828125 C 39.6875 -17.003906 39.890625 -15.535156 40.296875 -14.421875 C 40.703125 -13.304688 41.410156 -12.429688 42.421875 -11.796875 C 42.453125 -11.671875 42.46875 -11.429688 42.46875 -11.078125 L 42.46875 -10.390625 C 42.46875 -6.785156 41.375 -3.984375 39.1875 -1.984375 C 37.257812 -0.203125 34.875 0.6875 32.03125 0.6875 C 30.101562 0.6875 28.335938 0.234375 26.734375 -0.671875 C 25.140625 -1.585938 24.003906 -2.910156 23.328125 -4.640625 C 22.460938 -4.640625 22.03125 -4.222656 22.03125 -3.390625 C 22.03125 -2.679688 22.472656 -1.878906 23.359375 -0.984375 C 21.710938 0.128906 19.226562 0.6875 15.90625 0.6875 C 11.207031 0.6875 7.457031 -0.585938 4.65625 -3.140625 C 1.851562 -5.691406 0.453125 -9.253906 0.453125 -13.828125 C 0.453125 -18.410156 1.9375 -21.957031 4.90625 -24.46875 C 7.625 -26.71875 11.140625 -27.84375 15.453125 -27.84375 C 16.921875 -27.84375 18.335938 -27.742188 19.703125 -27.546875 C 20.617188 -27.367188 21.113281 -27.269531 21.1875 -27.25 C 21.269531 -27.5 21.3125 -27.710938 21.3125 -27.890625 C 21.3125 -28.546875 20.75 -28.988281 19.625 -29.21875 C 18.507812 -29.445312 17.050781 -29.5625 15.25 -29.5625 C 11.425781 -29.5625 8.15625 -28.789062 5.4375 -27.25 C 4.195312 -29.351562 3.578125 -32.015625 3.578125 -35.234375 C 3.578125 -37.054688 3.804688 -38.410156 4.265625 -39.296875 C 6.085938 -40.140625 8.40625 -40.882812 11.21875 -41.53125 C 14.039062 -42.175781 17.007812 -42.5 20.125 -42.5 C 26.570312 -42.5 31.441406 -41.085938 34.734375 -38.265625 C 38.035156 -35.453125 39.6875 -31.460938 39.6875 -26.296875 Z M 19.9375 -16.96875 C 18.875 -16.96875 18.34375 -16.488281 18.34375 -15.53125 C 18.34375 -14.613281 18.960938 -14.15625 20.203125 -14.15625 C 21.066406 -14.15625 21.703125 -14.363281 22.109375 -14.78125 C 22.515625 -15.195312 22.71875 -15.925781 22.71875 -16.96875 C 22.71875 -16.96875 21.789062 -16.96875 19.9375 -16.96875 Z M 19.9375 -16.96875 "/></g></g><g style="fill:rgb(17.649841%,17.248535%,16.859436%);fill-opacity:1;"><g transform="translate(5.48264, 65.012172)"><path style="stroke:none;" d="M 21.796875 -18 C 21.796875 -17.5625 22 -17.269531 22.40625 -17.125 C 23.019531 -17.8125 23.882812 -18.410156 25 -18.921875 C 26.113281 -19.441406 27.367188 -19.703125 28.765625 -19.703125 C 31.429688 -19.703125 33.640625 -18.914062 35.390625 -17.34375 C 35.390625 -17.34375 35.476562 -17.269531 35.65625 -17.125 C 35.976562 -17.300781 36.140625 -17.617188 36.140625 -18.078125 C 36.140625 -18.859375 35.519531 -19.601562 34.28125 -20.3125 C 32.832031 -21.101562 30.976562 -21.5 28.71875 -21.5 C 28.113281 -21.5 27.554688 -21.445312 27.046875 -21.34375 L 27.046875 -31.28125 C 27.046875 -32.363281 26.671875 -32.90625 25.921875 -32.90625 C 25.179688 -32.90625 24.8125 -32.347656 24.8125 -31.234375 L 24.8125 -20.8125 C 22.800781 -20 21.796875 -19.0625 21.796875 -18 Z M 24.921875 0.03125 C 20.535156 0.03125 16.550781 -0.796875 12.96875 -2.453125 C 9.394531 -4.117188 6.539062 -6.6875 4.40625 -10.15625 C 2.03125 -14.09375 0.84375 -18.988281 0.84375 -24.84375 C 0.84375 -30.707031 2.054688 -35.640625 4.484375 -39.640625 C 6.671875 -43.242188 9.632812 -45.921875 13.375 -47.671875 C 17.113281 -49.421875 21.140625 -50.296875 25.453125 -50.296875 C 33.316406 -50.296875 39.484375 -47.992188 43.953125 -43.390625 C 48.429688 -38.785156 50.671875 -32.769531 50.671875 -25.34375 C 50.671875 -20.800781 49.707031 -16.816406 47.78125 -13.390625 L 53.3125 -13.390625 C 54.21875 -10.648438 54.671875 -8.0625 54.671875 -5.625 C 54.671875 -1.925781 53.644531 1.050781 51.59375 3.3125 C 49.539062 5.570312 46.675781 6.703125 43 6.703125 C 39.320312 6.703125 36.269531 5.488281 33.84375 3.0625 C 31.414062 0.632812 29.441406 -3.1875 27.921875 -8.40625 L 27.734375 -8.40625 C 26.921875 -8.40625 26.515625 -8 26.515625 -7.1875 C 26.515625 -5.664062 27.363281 -3.332031 29.0625 -0.1875 C 27.75 -0.0390625 26.367188 0.03125 24.921875 0.03125 Z M 24.921875 0.03125 "/></g><g transform="translate(60.230133, 65.012172)"><path style="stroke:none;" d="M 20.78125 -34.25 L 20.78125 -19.171875 C 20.78125 -15.390625 21.691406 -12.929688 23.515625 -11.796875 C 23.535156 -11.671875 23.546875 -11.429688 23.546875 -11.078125 L 23.546875 -10.390625 C 23.546875 -6.660156 22.53125 -3.859375 20.5 -1.984375 C 18.625 -0.203125 16.117188 0.6875 12.984375 0.6875 C 9.859375 0.6875 7.28125 -0.203125 5.25 -1.984375 C 2.6875 -4.234375 1.40625 -7.53125 1.40625 -11.875 L 1.40625 -36.609375 C 1.863281 -36.929688 2.359375 -37.191406 2.890625 -37.390625 C 3.421875 -37.597656 3.976562 -37.851562 4.5625 -38.15625 C 3.46875 -38.71875 2.476562 -39.6875 1.59375 -41.0625 C 0.707031 -42.445312 0.265625 -44.066406 0.265625 -45.921875 C 0.265625 -49.117188 1.316406 -51.734375 3.421875 -53.765625 C 5.523438 -55.796875 8.101562 -56.8125 11.15625 -56.8125 C 14.21875 -56.8125 16.78125 -55.773438 18.84375 -53.703125 C 20.914062 -51.640625 21.953125 -49.046875 21.953125 -45.921875 C 21.953125 -43.410156 21.164062 -41.207031 19.59375 -39.3125 C 18.019531 -37.425781 16.101562 -36.242188 13.84375 -35.765625 C 13.84375 -34.796875 14.210938 -34.3125 14.953125 -34.3125 C 16.242188 -34.3125 17.5625 -34.820312 18.90625 -35.84375 C 19.925781 -35.050781 20.550781 -34.519531 20.78125 -34.25 Z M 20.78125 -34.25 "/></g><g transform="translate(83.47594, 65.012172)"><path style="stroke:none;" d="M 62.8125 -18.828125 C 62.8125 -16.984375 63.015625 -15.476562 63.421875 -14.3125 C 63.828125 -13.144531 64.539062 -12.242188 65.5625 -11.609375 C 65.582031 -11.484375 65.59375 -11.265625 65.59375 -10.953125 L 65.59375 -10.390625 C 65.59375 -6.910156 64.578125 -4.191406 62.546875 -2.234375 C 60.515625 -0.285156 57.894531 0.6875 54.6875 0.6875 C 51.476562 0.6875 48.898438 -0.1875 46.953125 -1.9375 C 44.640625 -3.96875 43.484375 -7.078125 43.484375 -11.265625 L 43.484375 -23.28125 C 43.484375 -24.976562 42.925781 -25.828125 41.8125 -25.828125 C 41.382812 -25.828125 41.039062 -25.726562 40.78125 -25.53125 L 41.46875 -19.859375 L 41.46875 -11.265625 C 41.46875 -7.816406 42.039062 -5.203125 43.1875 -3.421875 C 41.96875 -2.128906 40.453125 -1.117188 38.640625 -0.390625 C 36.828125 0.328125 34.984375 0.6875 33.109375 0.6875 C 30.054688 0.6875 27.695312 -0.046875 26.03125 -1.515625 C 24 -3.296875 22.984375 -6.101562 22.984375 -9.9375 L 22.984375 -23.28125 C 22.984375 -24.976562 22.425781 -25.828125 21.3125 -25.828125 C 20.875 -25.828125 20.53125 -25.726562 20.28125 -25.53125 L 20.96875 -19.859375 L 20.96875 -9.78125 C 20.96875 -6.9375 21.347656 -4.742188 22.109375 -3.203125 C 19.617188 -0.640625 16.128906 0.640625 11.640625 0.640625 C 8.972656 0.640625 6.726562 -0.03125 4.90625 -1.375 C 2.800781 -2.914062 1.75 -4.992188 1.75 -7.609375 L 1.75 -25.796875 C 0.25 -27.898438 -0.5 -30.492188 -0.5 -33.578125 C -0.5 -36.660156 0.25 -39.332031 1.75 -41.59375 L 10.921875 -41.59375 C 12.722656 -41.59375 14.257812 -40.914062 15.53125 -39.5625 C 14.40625 -38.53125 13.84375 -37.671875 13.84375 -36.984375 C 13.84375 -36.191406 14.289062 -35.796875 15.1875 -35.796875 C 16.300781 -37.722656 17.832031 -39.257812 19.78125 -40.40625 C 22.0625 -41.695312 24.738281 -42.34375 27.8125 -42.34375 C 30.144531 -42.34375 32.191406 -41.847656 33.953125 -40.859375 C 35.722656 -39.867188 37.035156 -38.726562 37.890625 -37.4375 C 39.085938 -39.0625 40.640625 -40.285156 42.546875 -41.109375 C 44.460938 -41.929688 46.460938 -42.34375 48.546875 -42.34375 C 53.140625 -42.34375 56.703125 -40.921875 59.234375 -38.078125 C 61.722656 -35.242188 62.96875 -31.351562 62.96875 -26.40625 Z M 62.8125 -18.828125 "/></g><g transform="translate(148.76204, 65.012172)"><path style="stroke:none;" d="M 21.234375 -21.1875 L 21.234375 -14.53125 C 21.410156 -14.351562 21.703125 -14.265625 22.109375 -14.265625 C 22.515625 -14.265625 22.804688 -14.40625 22.984375 -14.6875 C 23.160156 -14.96875 23.25 -15.445312 23.25 -16.125 L 23.25 -21.578125 C 23.25 -24.003906 23.144531 -25.617188 22.9375 -26.421875 C 22.738281 -27.222656 22.359375 -27.625 21.796875 -27.625 C 21.441406 -27.625 21.140625 -27.5 20.890625 -27.25 C 21.117188 -24.726562 21.234375 -22.707031 21.234375 -21.1875 Z M 7 -4.34375 C 2.84375 -8.34375 0.765625 -13.773438 0.765625 -20.640625 C 0.765625 -27.503906 2.722656 -32.921875 6.640625 -36.890625 C 10.554688 -40.859375 15.695312 -42.84375 22.0625 -42.84375 C 28.4375 -42.84375 33.585938 -40.773438 37.515625 -36.640625 C 41.421875 -32.503906 43.375 -27.117188 43.375 -20.484375 C 43.375 -13.859375 41.488281 -8.59375 37.71875 -4.6875 C 33.957031 -0.78125 28.84375 1.171875 22.375 1.171875 C 15.90625 1.171875 10.78125 -0.664062 7 -4.34375 Z M 7 -4.34375 "/></g><g transform="translate(192.894834, 65.012172)"><path style="stroke:none;" d="M 22.90625 -26.96875 C 22.65625 -27.226562 22.347656 -27.359375 21.984375 -27.359375 C 21.429688 -27.359375 21.050781 -26.957031 20.84375 -26.15625 C 20.644531 -25.351562 20.546875 -23.738281 20.546875 -21.3125 L 20.546875 -17.421875 C 20.546875 -16.742188 20.632812 -16.265625 20.8125 -15.984375 C 20.988281 -15.703125 21.28125 -15.5625 21.6875 -15.5625 C 22.09375 -15.5625 22.382812 -15.648438 22.5625 -15.828125 L 22.5625 -20.921875 C 22.5625 -23.410156 22.675781 -25.425781 22.90625 -26.96875 Z M 20.171875 -49.46875 C 21.515625 -51.039062 22.992188 -52.222656 24.609375 -53.015625 C 26.234375 -53.816406 28.300781 -54.21875 30.8125 -54.21875 C 33.863281 -54.21875 36.335938 -53.367188 38.234375 -51.671875 C 40.191406 -49.835938 41.171875 -47.375 41.171875 -44.28125 L 41.171875 -19.171875 C 41.171875 -15.390625 42.082031 -12.929688 43.90625 -11.796875 C 43.925781 -11.671875 43.9375 -11.429688 43.9375 -11.078125 L 43.9375 -10.390625 C 43.9375 -6.785156 42.847656 -3.984375 40.671875 -1.984375 C 38.742188 -0.203125 36.359375 0.6875 33.515625 0.6875 C 31.535156 0.6875 29.828125 0.265625 28.390625 -0.578125 C 26.679688 -1.535156 25.488281 -2.851562 24.8125 -4.53125 C 23.945312 -4.53125 23.515625 -4.109375 23.515625 -3.265625 C 23.515625 -2.890625 23.660156 -2.453125 23.953125 -1.953125 C 24.242188 -1.460938 24.644531 -1.023438 25.15625 -0.640625 C 23.65625 0.242188 21.710938 0.6875 19.328125 0.6875 C 16.109375 0.6875 13.097656 -0.0507812 10.296875 -1.53125 C 7.492188 -3.019531 5.265625 -5.257812 3.609375 -8.25 C 1.710938 -11.675781 0.765625 -15.828125 0.765625 -20.703125 C 0.765625 -27.191406 2.582031 -32.285156 6.21875 -35.984375 C 9.863281 -39.691406 14.515625 -41.546875 20.171875 -41.546875 C 23.515625 -41.546875 26.429688 -40.910156 28.921875 -39.640625 C 29.191406 -39.921875 29.328125 -40.210938 29.328125 -40.515625 C 29.328125 -41.273438 28.425781 -41.921875 26.625 -42.453125 C 24.832031 -42.992188 23.019531 -43.265625 21.1875 -43.265625 C 21.1875 -45.847656 20.847656 -47.914062 20.171875 -49.46875 Z M 20.171875 -49.46875 "/></g><g transform="translate(236.533037, 65.012172)"><path style="stroke:none;" d="M 39.6875 -18.828125 C 39.6875 -17.003906 39.890625 -15.535156 40.296875 -14.421875 C 40.703125 -13.304688 41.410156 -12.429688 42.421875 -11.796875 C 42.453125 -11.671875 42.46875 -11.429688 42.46875 -11.078125 L 42.46875 -10.390625 C 42.46875 -6.785156 41.375 -3.984375 39.1875 -1.984375 C 37.257812 -0.203125 34.875 0.6875 32.03125 0.6875 C 30.101562 0.6875 28.335938 0.234375 26.734375 -0.671875 C 25.140625 -1.585938 24.003906 -2.910156 23.328125 -4.640625 C 22.460938 -4.640625 22.03125 -4.222656 22.03125 -3.390625 C 22.03125 -2.679688 22.472656 -1.878906 23.359375 -0.984375 C 21.710938 0.128906 19.226562 0.6875 15.90625 0.6875 C 11.207031 0.6875 7.457031 -0.585938 4.65625 -3.140625 C 1.851562 -5.691406 0.453125 -9.253906 0.453125 -13.828125 C 0.453125 -18.410156 1.9375 -21.957031 4.90625 -24.46875 C 7.625 -26.71875 11.140625 -27.84375 15.453125 -27.84375 C 16.921875 -27.84375 18.335938 -27.742188 19.703125 -27.546875 C 20.617188 -27.367188 21.113281 -27.269531 21.1875 -27.25 C 21.269531 -27.5 21.3125 -27.710938 21.3125 -27.890625 C 21.3125 -28.546875 20.75 -28.988281 19.625 -29.21875 C 18.507812 -29.445312 17.050781 -29.5625 15.25 -29.5625 C 11.425781 -29.5625 8.15625 -28.789062 5.4375 -27.25 C 4.195312 -29.351562 3.578125 -32.015625 3.578125 -35.234375 C 3.578125 -37.054688 3.804688 -38.410156 4.265625 -39.296875 C 6.085938 -40.140625 8.40625 -40.882812 11.21875 -41.53125 C 14.039062 -42.175781 17.007812 -42.5 20.125 -42.5 C 26.570312 -42.5 31.441406 -41.085938 34.734375 -38.265625 C 38.035156 -35.453125 39.6875 -31.460938 39.6875 -26.296875 Z M 19.9375 -16.96875 C 18.875 -16.96875 18.34375 -16.488281 18.34375 -15.53125 C 18.34375 -14.613281 18.960938 -14.15625 20.203125 -14.15625 C 21.066406 -14.15625 21.703125 -14.363281 22.109375 -14.78125 C 22.515625 -15.195312 22.71875 -15.925781 22.71875 -16.96875 C 22.71875 -16.96875 21.789062 -16.96875 19.9375 -16.96875 Z M 19.9375 -16.96875 "/></g></g></g></svg>