{
  "asset": {
    "version": "2.0",
    "generator": "THREE.GLTFExporter"
  },
  "scenes": [
    {
      "name": "AuxScene",
      "nodes": [
        0
      ]
    }
  ],
  "scene": 0,
  "nodes": [
    {
      "name": "Cylinder_Cylinder.002",
      "mesh": 0
    }
  ],
  "bufferViews": [
    {
      "buffer": 0,
      "byteOffset": 0,
      "byteLength": 25776,
      "target": 34962,
      "byteStride": 12
    },
    {
      "buffer": 0,
      "byteOffset": 25776,
      "byteLength": 25776,
      "target": 34962,
      "byteStride": 12
    },
    {
      "buffer": 0,
      "byteOffset": 51552,
      "byteLength": 17184,
      "target": 34962,
      "byteStride": 8
    }
  ],
  "buffers": [
    {
      "byteLength": 68736,
      "uri": "data:application/octet-stream;base64,"
    }
  ],
  "accessors": [
    {
      "bufferView": 0,
      "componentType": 5126,
      "count": 2148,
      "max": [
        1.2037140130996704,
        4.734469890594482,
        1.2037140130996704
      ],
      "min": [
        -1.2037140130996704,
        0.11329200118780136,
        -1.2037140130996704
      ],
      "type": "VEC3"
    },
    {
      "bufferView": 1,
      "componentType": 5126,
      "count": 2148,
      "max": [
        0.9998999834060669,
        0.7440999746322632,
        0.9998999834060669
      ],
      "min": [
        -0.9998999834060669,
        -0.9836000204086304,
        -0.9998999834060669
      ],
      "type": "VEC3"
    },
    {
      "bufferView": 2,
      "componentType": 5126,
      "count": 2148,
      "max": [
        1,
        1
      ],
      "min": [
        0,
        0.009999999776482582
      ],
      "type": "VEC2"
    }
  ],
  "materials": [
    {
      "pbrMetallicRoughness": {
        "baseColorFactor": [
          1,
          1,
          1,
          0.18
        ],
        "metallicFactor": 0.5,
        "roughnessFactor": 0.5
      },
      "alphaMode": "BLEND",
      "alphaCutoff": 0.18,
      "doubleSided": true,
      "name": "Glass"
    },
    {
      "pbrMetallicRoughness": {
        "baseColorFactor": [
          0.5254901960784314,
          0.5254901960784314,
          0.5254901960784314,
          1
        ],
        "metallicFactor": 0.5,
        "roughnessFactor": 0.5
      },
      "name": "Lid_Metal"
    }
  ],
  "meshes": [
    {
      "primitives": [
        {
          "mode": 4,
          "attributes": {
            "POSITION": 0,
            "NORMAL": 1,
            "TEXCOORD_0": 2
          },
          "material": 0
        },
        {
          "mode": 4,
          "attributes": {
            "POSITION": 0,
            "NORMAL": 1,
            "TEXCOORD_0": 2
          },
          "material": 1
        }
      ]
    }
  ]
}