<?xml version="1.0" encoding="UTF-8"?><svg xmlns="http://www.w3.org/2000/svg" xmlns:xlink="http://www.w3.org/1999/xlink" width="375pt" zoomAndPan="magnify" viewBox="0 0 375 374.999991" height="374.999991pt" preserveAspectRatio="xMidYMid meet" version="1.2"><defs><clipPath xml:id="clip1" id="clip1"><path d="M 1 100 L 224 100 L 224 320.453125 L 1 320.453125 Z M 1 100 "/></clipPath><clipPath xml:id="clip2" id="clip2"><path d="M 204 54.203125 L 322 54.203125 L 322 171 L 204 171 Z M 204 54.203125 "/></clipPath></defs><g xml:id="surface1" id="surface1"><g clip-rule="nonzero" clip-path="url(#clip1)"><path style=" stroke:none;fill-rule:nonzero;fill:rgb(83.139038%,77.648926%,69.40918%);fill-opacity:1;" d="M 111.890625 100.601562 C 111.890625 100.601562 124.738281 210.53125 223.464844 210.53125 C 223.464844 210.53125 117.066406 214.078125 111.890625 320.453125 C 111.890625 320.453125 107.847656 215.382812 1.828125 210.53125 C 1.828125 210.53125 111.890625 199.640625 111.890625 100.601562 Z M 111.890625 100.601562 "/></g><g clip-rule="nonzero" clip-path="url(#clip2)"><path style=" stroke:none;fill-rule:nonzero;fill:rgb(83.139038%,77.648926%,69.40918%);fill-opacity:1;" d="M 262.589844 54.203125 C 262.589844 54.203125 269.414062 112.566406 321.832031 112.566406 C 321.832031 112.566406 265.339844 114.460938 262.589844 170.925781 C 262.589844 170.925781 260.441406 115.140625 204.160156 112.566406 C 204.160156 112.566406 262.589844 106.78125 262.589844 54.203125 Z M 262.589844 54.203125 "/></g><path style=" stroke:none;fill-rule:nonzero;fill:rgb(83.139038%,77.648926%,69.40918%);fill-opacity:1;" d="M 330.414062 207.109375 C 330.414062 207.109375 335.339844 249.261719 373.199219 249.261719 C 373.199219 249.261719 332.394531 250.617188 330.414062 291.410156 C 330.414062 291.410156 328.863281 251.125 288.207031 249.261719 C 288.183594 249.261719 330.414062 245.082031 330.414062 207.109375 Z M 330.414062 207.109375 "/></g></svg>