<?xml version="1.0" encoding="UTF-8"?><svg xmlns="http://www.w3.org/2000/svg" xmlns:xlink="http://www.w3.org/1999/xlink" width="375pt" zoomAndPan="magnify" viewBox="0 0 375 374.999991" height="374.999991pt" preserveAspectRatio="xMidYMid meet" version="1.2"><defs><g/></defs><g xml:id="surface1" id="surface1"><g style="fill:rgb(65.098572%,43.528748%,22.749329%);fill-opacity:0.302;"><g transform="translate(82.207542, 323.889514)"><path style="stroke:none;" d="M 106.296875 -87.75 C 106.296875 -85.644531 107.285156 -84.222656 109.265625 -83.484375 C 112.234375 -86.816406 116.4375 -89.75 121.875 -92.28125 C 127.320312 -94.820312 133.445312 -96.09375 140.25 -96.09375 C 153.238281 -96.09375 164 -92.257812 172.53125 -84.59375 C 172.53125 -84.59375 172.960938 -84.222656 173.828125 -83.484375 C 175.429688 -84.347656 176.234375 -85.894531 176.234375 -88.125 C 176.234375 -91.957031 173.207031 -95.601562 167.15625 -99.0625 C 160.101562 -102.894531 151.070312 -104.8125 140.0625 -104.8125 C 137.09375 -104.8125 134.375 -104.566406 131.90625 -104.078125 L 131.90625 -152.5 C 131.90625 -157.8125 130.078125 -160.46875 126.421875 -160.46875 C 122.773438 -160.46875 120.953125 -157.75 120.953125 -152.3125 L 120.953125 -101.484375 C 111.179688 -97.523438 106.296875 -92.945312 106.296875 -87.75 Z M 121.515625 0.1875 C 100.117188 0.1875 80.703125 -3.859375 63.265625 -11.953125 C 45.828125 -20.054688 31.910156 -32.582031 21.515625 -49.53125 C 9.890625 -68.695312 4.078125 -92.566406 4.078125 -121.140625 C 4.078125 -149.710938 10.015625 -173.769531 21.890625 -193.3125 C 32.523438 -210.875 46.960938 -223.921875 65.203125 -232.453125 C 83.453125 -240.984375 103.085938 -245.25 124.109375 -245.25 C 162.453125 -245.25 192.535156 -234.023438 214.359375 -211.578125 C 236.191406 -189.128906 247.109375 -159.785156 247.109375 -123.546875 C 247.109375 -101.410156 242.410156 -81.992188 233.015625 -65.296875 L 259.90625 -65.296875 C 264.363281 -51.941406 266.59375 -39.328125 266.59375 -27.453125 C 266.59375 -9.398438 261.582031 5.128906 251.5625 16.140625 C 241.539062 27.148438 227.5625 32.65625 209.625 32.65625 C 191.695312 32.65625 176.828125 26.75 165.015625 14.9375 C 153.203125 3.125 143.585938 -15.519531 136.171875 -41 L 135.234375 -41 C 131.285156 -41 129.3125 -39.019531 129.3125 -35.0625 C 129.3125 -27.644531 133.453125 -16.265625 141.734375 -0.921875 C 135.304688 -0.179688 128.566406 0.1875 121.515625 0.1875 Z M 121.515625 0.1875 "/></g></g><g style="fill:rgb(65.098572%,43.528748%,22.749329%);fill-opacity:0.502;"><g transform="translate(68.113975, 301.335075)"><path style="stroke:none;" d="M 106.296875 -87.75 C 106.296875 -85.644531 107.285156 -84.222656 109.265625 -83.484375 C 112.234375 -86.816406 116.4375 -89.75 121.875 -92.28125 C 127.320312 -94.820312 133.445312 -96.09375 140.25 -96.09375 C 153.238281 -96.09375 164 -92.257812 172.53125 -84.59375 C 172.53125 -84.59375 172.960938 -84.222656 173.828125 -83.484375 C 175.429688 -84.347656 176.234375 -85.894531 176.234375 -88.125 C 176.234375 -91.957031 173.207031 -95.601562 167.15625 -99.0625 C 160.101562 -102.894531 151.070312 -104.8125 140.0625 -104.8125 C 137.09375 -104.8125 134.375 -104.566406 131.90625 -104.078125 L 131.90625 -152.5 C 131.90625 -157.8125 130.078125 -160.46875 126.421875 -160.46875 C 122.773438 -160.46875 120.953125 -157.75 120.953125 -152.3125 L 120.953125 -101.484375 C 111.179688 -97.523438 106.296875 -92.945312 106.296875 -87.75 Z M 121.515625 0.1875 C 100.117188 0.1875 80.703125 -3.859375 63.265625 -11.953125 C 45.828125 -20.054688 31.910156 -32.582031 21.515625 -49.53125 C 9.890625 -68.695312 4.078125 -92.566406 4.078125 -121.140625 C 4.078125 -149.710938 10.015625 -173.769531 21.890625 -193.3125 C 32.523438 -210.875 46.960938 -223.921875 65.203125 -232.453125 C 83.453125 -240.984375 103.085938 -245.25 124.109375 -245.25 C 162.453125 -245.25 192.535156 -234.023438 214.359375 -211.578125 C 236.191406 -189.128906 247.109375 -159.785156 247.109375 -123.546875 C 247.109375 -101.410156 242.410156 -81.992188 233.015625 -65.296875 L 259.90625 -65.296875 C 264.363281 -51.941406 266.59375 -39.328125 266.59375 -27.453125 C 266.59375 -9.398438 261.582031 5.128906 251.5625 16.140625 C 241.539062 27.148438 227.5625 32.65625 209.625 32.65625 C 191.695312 32.65625 176.828125 26.75 165.015625 14.9375 C 153.203125 3.125 143.585938 -15.519531 136.171875 -41 L 135.234375 -41 C 131.285156 -41 129.3125 -39.019531 129.3125 -35.0625 C 129.3125 -27.644531 133.453125 -16.265625 141.734375 -0.921875 C 135.304688 -0.179688 128.566406 0.1875 121.515625 0.1875 Z M 121.515625 0.1875 "/></g></g><g style="fill:rgb(27.839661%,20.779419%,7.839966%);fill-opacity:1;"><g transform="translate(54.020391, 278.780639)"><path style="stroke:none;" d="M 106.296875 -87.75 C 106.296875 -85.644531 107.285156 -84.222656 109.265625 -83.484375 C 112.234375 -86.816406 116.4375 -89.75 121.875 -92.28125 C 127.320312 -94.820312 133.445312 -96.09375 140.25 -96.09375 C 153.238281 -96.09375 164 -92.257812 172.53125 -84.59375 C 172.53125 -84.59375 172.960938 -84.222656 173.828125 -83.484375 C 175.429688 -84.347656 176.234375 -85.894531 176.234375 -88.125 C 176.234375 -91.957031 173.207031 -95.601562 167.15625 -99.0625 C 160.101562 -102.894531 151.070312 -104.8125 140.0625 -104.8125 C 137.09375 -104.8125 134.375 -104.566406 131.90625 -104.078125 L 131.90625 -152.5 C 131.90625 -157.8125 130.078125 -160.46875 126.421875 -160.46875 C 122.773438 -160.46875 120.953125 -157.75 120.953125 -152.3125 L 120.953125 -101.484375 C 111.179688 -97.523438 106.296875 -92.945312 106.296875 -87.75 Z M 121.515625 0.1875 C 100.117188 0.1875 80.703125 -3.859375 63.265625 -11.953125 C 45.828125 -20.054688 31.910156 -32.582031 21.515625 -49.53125 C 9.890625 -68.695312 4.078125 -92.566406 4.078125 -121.140625 C 4.078125 -149.710938 10.015625 -173.769531 21.890625 -193.3125 C 32.523438 -210.875 46.960938 -223.921875 65.203125 -232.453125 C 83.453125 -240.984375 103.085938 -245.25 124.109375 -245.25 C 162.453125 -245.25 192.535156 -234.023438 214.359375 -211.578125 C 236.191406 -189.128906 247.109375 -159.785156 247.109375 -123.546875 C 247.109375 -101.410156 242.410156 -81.992188 233.015625 -65.296875 L 259.90625 -65.296875 C 264.363281 -51.941406 266.59375 -39.328125 266.59375 -27.453125 C 266.59375 -9.398438 261.582031 5.128906 251.5625 16.140625 C 241.539062 27.148438 227.5625 32.65625 209.625 32.65625 C 191.695312 32.65625 176.828125 26.75 165.015625 14.9375 C 153.203125 3.125 143.585938 -15.519531 136.171875 -41 L 135.234375 -41 C 131.285156 -41 129.3125 -39.019531 129.3125 -35.0625 C 129.3125 -27.644531 133.453125 -16.265625 141.734375 -0.921875 C 135.304688 -0.179688 128.566406 0.1875 121.515625 0.1875 Z M 121.515625 0.1875 "/></g></g></g></svg>