<?xml version="1.0" encoding="UTF-8"?><svg xmlns="http://www.w3.org/2000/svg" xmlns:xlink="http://www.w3.org/1999/xlink" width="375pt" zoomAndPan="magnify" viewBox="0 0 375 374.999991" height="374.999991pt" preserveAspectRatio="xMidYMid meet" version="1.2"><g xml:id="surface1" id="surface1"><path style=" stroke:none;fill-rule:nonzero;fill:rgb(83.139038%,77.648926%,69.40918%);fill-opacity:1;" d="M 209.414062 375 L 187.566406 318.546875 L 165.714844 375 L 157.480469 315.03125 L 123.195312 364.925781 L 129.015625 304.675781 L 84.144531 345.320312 L 103.707031 288.035156 L 50.667969 317.242188 L 82.921875 266.011719 L 24.574219 282.203125 L 67.777344 239.789062 L 7.265625 242.09375 L 59.089844 210.78125 L -0.320312 199.074219 L 57.328125 180.554688 L 2.21875 155.464844 L 62.585938 150.734375 L 14.75 113.617188 L 74.585938 122.929688 L 36.601562 75.789062 L 92.671875 98.644531 L 66.589844 44.015625 L 115.878906 79.179688 L 103.097656 20.011719 L 142.945312 65.589844 L 144.164062 5.070312 L 172.421875 58.609375 L 187.566406 0 L 202.710938 58.609375 L 230.96875 5.070312 L 232.183594 65.589844 L 272.03125 20.011719 L 259.253906 79.179688 L 308.542969 44.015625 L 282.457031 98.644531 L 338.53125 75.789062 L 300.546875 122.929688 L 360.378906 113.621094 L 312.542969 150.734375 L 372.914062 155.464844 L 317.804688 180.554688 L 375.453125 199.074219 L 316.042969 210.78125 L 367.863281 242.09375 L 307.355469 239.789062 L 350.558594 282.203125 L 292.210938 266.011719 L 324.460938 317.242188 L 271.421875 288.035156 L 290.988281 345.320312 L 246.117188 304.675781 L 251.9375 364.925781 L 217.652344 315.03125 Z M 209.414062 375 "/></g></svg>